<svg xmlns="http://www.w3.org/2000/svg" viewBox="0 0 1996.54 351.86"><defs><style>.cls-1{fill:#fff;}</style></defs><g id="Слой_2" data-name="Слой 2"><g id="Слой_1-2" data-name="Слой 1"><polygon class="cls-1" points="516.45 0 329.57 250.94 220.78 258.23 156.99 344 39.57 351.86 103.43 266.09 0 272.98 124.38 105.88 232.84 99.05 111.17 262.67 217.05 256.04 401.42 8.05 516.45 0"/><path class="cls-1" d="M702.08,111.85v71.23a88.84,88.84,0,0,1-3,23.77,50.81,50.81,0,0,1-9.38,18.68,42.7,42.7,0,0,1-16.49,12.2q-10.11,4.38-24.5,4.37t-24.5-4.37a43.82,43.82,0,0,1-16.58-12.11A49,49,0,0,1,598.16,207a89.29,89.29,0,0,1-3-24V111.85h21.13v72a67.32,67.32,0,0,0,1.64,15.12,34.64,34.64,0,0,0,5.47,12.48,27.49,27.49,0,0,0,10,8.56q6.18,3.19,15.48,3.19,9.11,0,15.3-3.19a26.41,26.41,0,0,0,9.93-8.65,35.43,35.43,0,0,0,5.28-12.57A70.2,70.2,0,0,0,681,183.81v-72Z"/><path class="cls-1" d="M727.22,240.65V111.85H748v128.8Z"/><path class="cls-1" d="M799.18,144.64H823.4v18H799.18v43.9q0,8.21,2.91,12.21t11.11,4h9.47v17.86H811.38q-17.67,0-25.23-7.29t-7.56-23.87V162.68H763.47v-18h15.12V117.5h20.59Z"/><path class="cls-1" d="M838.89,240.65v-96h19.49l1.09,13.67Q870.59,143,889.71,143c1.21,0,2.4,0,3.55.1s2.22.15,3.19.27v19.31c-1.45,0-2.88,0-4.28.09s-2.76.09-4.1.09a32.07,32.07,0,0,0-13.39,2.82,24.53,24.53,0,0,0-8.74,7A27.19,27.19,0,0,0,861.11,183a53,53,0,0,0-1.46,12.66v45Z"/><path class="cls-1" d="M971.69,228.8a27.79,27.79,0,0,1-12.57,9.93,45.91,45.91,0,0,1-17.49,3.19,50.17,50.17,0,0,1-13.94-1.82,31.89,31.89,0,0,1-11-5.56,26.55,26.55,0,0,1-7.47-9.29,28.32,28.32,0,0,1-2.73-12.66,27.08,27.08,0,0,1,3.1-13.39,25.06,25.06,0,0,1,8.47-9A40.5,40.5,0,0,1,930.7,185a66.25,66.25,0,0,1,15.3-1.73h24.59q0-10.56-4.73-16.39t-16.58-6a27.81,27.81,0,0,0-11.93,2.36,12.1,12.1,0,0,0-6.65,7.84H909.39a27.83,27.83,0,0,1,5-12.94,34.16,34.16,0,0,1,9.47-8.74,38.19,38.19,0,0,1,12.39-4.92A65.75,65.75,0,0,1,950,143a56.11,56.11,0,0,1,16.58,2.37,31.87,31.87,0,0,1,13.29,8,33.16,33.16,0,0,1,8.57,15.66,85.53,85.53,0,0,1,2.18,19.86v51.74h-18ZM970.59,198h-20a68.33,68.33,0,0,0-10.57.82,18.63,18.63,0,0,0-9,3.82q-3.74,3-3.73,8.66,0,6.92,5,10.47a20.7,20.7,0,0,0,12.29,3.55A36.17,36.17,0,0,0,955,223.89a19.91,19.91,0,0,0,8.29-4.83,22.72,22.72,0,0,0,5.37-8.56A36.07,36.07,0,0,0,970.59,198Z"/><path class="cls-1" d="M1047.83,160.31a48.44,48.44,0,0,0-5.74.36,19.62,19.62,0,0,0-5.64,1.55,11.54,11.54,0,0,0-4.38,3.37,8.85,8.85,0,0,0-1.73,5.65,8,8,0,0,0,2.55,6.19,16.36,16.36,0,0,0,6.29,3.56,74.61,74.61,0,0,0,7.83,2c2.73.55,5.07,1,7,1.37a129.52,129.52,0,0,1,14.11,3.37,38.42,38.42,0,0,1,10.66,4.91,21,21,0,0,1,6.83,7.75q2.46,4.74,2.46,12.38A25.55,25.55,0,0,1,1076,235.64a37.63,37.63,0,0,1-12.21,4.82,67.57,67.57,0,0,1-14.12,1.46,71.62,71.62,0,0,1-14.39-1.46,42.65,42.65,0,0,1-13-4.91,29.36,29.36,0,0,1-14.67-23.14h20.95a11.47,11.47,0,0,0,3.1,6,18.81,18.81,0,0,0,5.56,3.83,25.32,25.32,0,0,0,6.64,2,40.55,40.55,0,0,0,6.38.55,47,47,0,0,0,5.37-.37,19,19,0,0,0,5.93-1.64,14.26,14.26,0,0,0,4.64-3.37,7.61,7.61,0,0,0,1.91-5.37,8.89,8.89,0,0,0-1.45-5.19,12.37,12.37,0,0,0-3.92-3.55,21.07,21.07,0,0,0-5.92-2.28l-7.29-1.73q-6-1.1-12.84-2.73a72.56,72.56,0,0,1-12.75-4.29,23.81,23.81,0,0,1-9.75-7.92q-3.82-5.28-3.82-13.48,0-8.74,3.46-14.39a28.73,28.73,0,0,1,8.92-9.2,34.86,34.86,0,0,1,12.21-4.92,66.82,66.82,0,0,1,13.3-1.37q15.84,0,26,7.29t11,21.13h-19.5a10.69,10.69,0,0,0-5.92-8.38A27.61,27.61,0,0,0,1047.83,160.31Z"/><path class="cls-1" d="M1148.75,143a52.22,52.22,0,0,1,20.22,3.65,42.74,42.74,0,0,1,14.85,10.11,42.26,42.26,0,0,1,9.2,15.57,62.72,62.72,0,0,1,3.09,20.22,64.2,64.2,0,0,1-3,20.32,42.75,42.75,0,0,1-9,15.57,39.28,39.28,0,0,1-14.85,10,55.89,55.89,0,0,1-20.49,3.46,53.4,53.4,0,0,1-20.22-3.55,39.88,39.88,0,0,1-14.66-10,42.25,42.25,0,0,1-8.93-15.58,69.42,69.42,0,0,1,0-40.44,40.66,40.66,0,0,1,23.77-25.68A51.72,51.72,0,0,1,1148.75,143Zm0,80.89a27.24,27.24,0,0,0,12.11-2.46,22.67,22.67,0,0,0,8.2-6.65,28.5,28.5,0,0,0,4.74-9.84,46.05,46.05,0,0,0,1.55-12.2,47.09,47.09,0,0,0-1.55-12.3,28.51,28.51,0,0,0-4.74-9.93,21.85,21.85,0,0,0-8.2-6.56,28.27,28.27,0,0,0-12.11-2.36,27.2,27.2,0,0,0-11.84,2.36,22.91,22.91,0,0,0-8.2,6.56,27.63,27.63,0,0,0-4.83,9.93,47.1,47.1,0,0,0-1.54,12.3,46.06,46.06,0,0,0,1.54,12.2,28.32,28.32,0,0,0,4.74,9.84,22.67,22.67,0,0,0,8.2,6.65A26.79,26.79,0,0,0,1148.75,223.89Z"/><path class="cls-1" d="M1257,223.89q12,0,17.12-6.74t5.1-19.13V144.64h20.59v54.11q0,12-3.28,20.31a32.78,32.78,0,0,1-22.32,20.58,60.81,60.81,0,0,1-17.21,2.28q-20,0-31.24-10.38t-11.21-32.79V144.64h20.59V198q0,12.39,5.37,19T1257,223.89Z"/><path class="cls-1" d="M1321.81,240.65v-96h19.85l1.1,13.3a33.45,33.45,0,0,1,13.2-11.2,39.06,39.06,0,0,1,16.85-3.74q10.2,0,17.22,3.47a31.28,31.28,0,0,1,11.48,9.47,38,38,0,0,1,6.37,14.21,78.18,78.18,0,0,1,1.91,17.85v52.65H1389V191.1a75.86,75.86,0,0,0-.82-11.48,26.82,26.82,0,0,0-3.19-9.38,16.48,16.48,0,0,0-6.65-6.38,23.48,23.48,0,0,0-11-2.27,22.71,22.71,0,0,0-11.57,3,21.33,21.33,0,0,0-8,7.93,35.35,35.35,0,0,0-4,10.92,59.44,59.44,0,0,0-1.18,11.48v45.73Z"/><path class="cls-1" d="M1522.55,240.65h-19.49l-1.09-13.3a29.65,29.65,0,0,1-13.3,10.93,52.43,52.43,0,0,1-18,3.64q-11.12-.18-19.13-4.1a38,38,0,0,1-13.3-10.56,43.4,43.4,0,0,1-7.74-15.4,68.31,68.31,0,0,1-2.46-18.58,66.83,66.83,0,0,1,2.82-19.85,45.24,45.24,0,0,1,8.47-15.85,40.77,40.77,0,0,1,13.85-10.66,43.91,43.91,0,0,1,19.13-3.92,52.31,52.31,0,0,1,15.84,2.55,28.63,28.63,0,0,1,13.67,9.48V111.85h20.76Zm-47.91-78.88a27.09,27.09,0,0,0-11.84,2.37,22,22,0,0,0-8.1,6.55,27.28,27.28,0,0,0-4.65,9.93,50,50,0,0,0-1.46,12.3,48.74,48.74,0,0,0,1.46,12.2,27.16,27.16,0,0,0,4.65,9.84,22.53,22.53,0,0,0,8.19,6.65,27.28,27.28,0,0,0,12.12,2.46,24.87,24.87,0,0,0,11.75-2.64,25.36,25.36,0,0,0,8.38-7,30,30,0,0,0,5-10,41.67,41.67,0,0,0,1.64-11.65,45.47,45.47,0,0,0-1.55-12,26.58,26.58,0,0,0-4.83-9.74,23.62,23.62,0,0,0-8.38-6.56A30.08,30.08,0,0,0,1474.64,161.77Z"/><path class="cls-1" d="M1597.6,111.85h21v110h67v18.77h-88Z"/><path class="cls-1" d="M1766.83,228.8a27.79,27.79,0,0,1-12.57,9.93,45.91,45.91,0,0,1-17.49,3.19,50.09,50.09,0,0,1-13.93-1.82,31.81,31.81,0,0,1-11-5.56,26.44,26.44,0,0,1-7.47-9.29,28.32,28.32,0,0,1-2.73-12.66,27.18,27.18,0,0,1,3.09-13.39,25.14,25.14,0,0,1,8.47-9,40.7,40.7,0,0,1,12.66-5.2,66.27,66.27,0,0,1,15.31-1.73h24.59q0-10.56-4.74-16.39t-16.57-6a27.85,27.85,0,0,0-11.94,2.36,12.13,12.13,0,0,0-6.65,7.84h-21.31a28.05,28.05,0,0,1,5-12.94,34.3,34.3,0,0,1,9.47-8.74,38.37,38.37,0,0,1,12.39-4.92,65.82,65.82,0,0,1,13.75-1.46,56.11,56.11,0,0,1,16.58,2.37,32,32,0,0,1,13.3,8,33.14,33.14,0,0,1,8.56,15.66,85,85,0,0,1,2.19,19.86v51.74h-18ZM1765.74,198h-20a68.3,68.3,0,0,0-10.56.82,18.59,18.59,0,0,0-9,3.82q-3.73,3-3.74,8.66,0,6.92,5,10.47a20.71,20.71,0,0,0,12.3,3.55,36.15,36.15,0,0,0,10.47-1.45,19.91,19.91,0,0,0,8.29-4.83,22.73,22.73,0,0,0,5.38-8.56A36.31,36.31,0,0,0,1765.74,198Z"/><path class="cls-1" d="M1807.82,240.65V111.85h20.77v46.27a34.33,34.33,0,0,1,13.93-11.2A42.28,42.28,0,0,1,1860.1,143a42.74,42.74,0,0,1,17.85,3.56,37.32,37.32,0,0,1,13.3,10,44.07,44.07,0,0,1,8.29,15.48,67.92,67.92,0,0,1,2.82,20.31,71,71,0,0,1-2.55,19.4,45.17,45.17,0,0,1-7.83,15.76,36.9,36.9,0,0,1-13.21,10.57,42.5,42.5,0,0,1-18.67,3.82q-20.58,0-31.51-13.3-.19,3.1-.28,6c-.06,2-.09,4-.09,6Zm47.91-16.76a25.8,25.8,0,0,0,11.66-2.46,22.83,22.83,0,0,0,8.1-6.65,28.32,28.32,0,0,0,4.74-9.84,46.05,46.05,0,0,0,1.55-12.2,47.09,47.09,0,0,0-1.55-12.3,28.34,28.34,0,0,0-4.74-9.93,21.82,21.82,0,0,0-8.19-6.56,27.88,27.88,0,0,0-11.94-2.36,25.26,25.26,0,0,0-11.93,2.73,24.54,24.54,0,0,0-8.47,7.19,32.35,32.35,0,0,0-4.92,10.11,40.49,40.49,0,0,0-1.64,11.3,41.44,41.44,0,0,0,1.64,11.75,29.12,29.12,0,0,0,4.92,9.74,25.12,25.12,0,0,0,8.38,6.84A26.69,26.69,0,0,0,1855.73,223.89Z"/><path class="cls-1" d="M1956.28,160.31a48.44,48.44,0,0,0-5.74.36,19.62,19.62,0,0,0-5.64,1.55,11.51,11.51,0,0,0-4.37,3.37,8.8,8.8,0,0,0-1.74,5.65,8,8,0,0,0,2.55,6.19,16.36,16.36,0,0,0,6.29,3.56,74.61,74.61,0,0,0,7.83,2c2.74.55,5.07,1,7,1.37a129.52,129.52,0,0,1,14.11,3.37,38.42,38.42,0,0,1,10.66,4.91,21,21,0,0,1,6.83,7.75q2.46,4.74,2.46,12.38a25.55,25.55,0,0,1-12.11,22.87,37.63,37.63,0,0,1-12.21,4.82,67.57,67.57,0,0,1-14.12,1.46,71.62,71.62,0,0,1-14.39-1.46,42.65,42.65,0,0,1-13-4.91A29.36,29.36,0,0,1,1916,212.41h21a11.47,11.47,0,0,0,3.1,6,18.81,18.81,0,0,0,5.56,3.83,25.32,25.32,0,0,0,6.64,2,40.55,40.55,0,0,0,6.38.55,47,47,0,0,0,5.37-.37,19,19,0,0,0,5.93-1.64,14.26,14.26,0,0,0,4.64-3.37,7.61,7.61,0,0,0,1.91-5.37,8.89,8.89,0,0,0-1.45-5.19,12.37,12.37,0,0,0-3.92-3.55,21.07,21.07,0,0,0-5.92-2.28l-7.29-1.73q-6-1.1-12.84-2.73a72.84,72.84,0,0,1-12.75-4.29,23.81,23.81,0,0,1-9.75-7.92q-3.82-5.28-3.82-13.48,0-8.74,3.46-14.39a28.73,28.73,0,0,1,8.92-9.2,34.86,34.86,0,0,1,12.21-4.92,66.82,66.82,0,0,1,13.3-1.37q15.84,0,26,7.29t11,21.13h-19.5a10.69,10.69,0,0,0-5.92-8.38A27.61,27.61,0,0,0,1956.28,160.31Z"/></g></g></svg>