<svg xmlns="http://www.w3.org/2000/svg" viewBox="0 0 1657.89 292.1"><g id="Слой_2" data-name="Слой 2"><g id="Слой_1-2" data-name="Слой 1"><polygon points="428.86 0 273.67 208.33 183.33 214.39 130.36 285.63 32.88 292.11 85.94 220.95 0 226.68 103.29 87.85 193.38 82.2 92.33 218.04 180.26 212.56 333.37 6.64 428.86 0"/><path d="M583,92.83V152a74.45,74.45,0,0,1-2.49,19.76,41.49,41.49,0,0,1-7.8,15.53A35.58,35.58,0,0,1,559,197.37c-5.56,2.4-12.37,3.65-20.34,3.65s-14.78-1.25-20.35-3.65a37.16,37.16,0,0,1-13.78-10.05,41.31,41.31,0,0,1-7.89-15.44A74.47,74.47,0,0,1,494.12,152V92.83h17.52v59.78A55.5,55.5,0,0,0,513,165.15a28.65,28.65,0,0,0,4.57,10.38,23.8,23.8,0,0,0,8.3,7.14,28.19,28.19,0,0,0,12.87,2.66,27.71,27.71,0,0,0,12.7-2.66,21.53,21.53,0,0,0,8.22-7.22A29.57,29.57,0,0,0,564,165a59.5,59.5,0,0,0,1.25-12.37V92.83Z"/><path d="M603.81,199.77V92.83h17.27V199.77Z"/><path d="M663.59,120.06h20.09V135H663.59v36.45c0,4.57.83,7.89,2.41,10.13s4.65,3.32,9.21,3.32h7.89v14.86h-9.38c-9.8,0-16.77-2-20.93-6.06s-6.31-10.63-6.31-19.84V135H634V120.06h12.53V97.56h17.11Z"/><path d="M696.55,199.77V120.06h16.19l.92,11.38c6.14-8.47,14.53-12.7,25.07-12.7,1,0,2,0,3,.08s1.83.16,2.66.25v16c-1.25,0-2.41,0-3.57.09s-2.33.08-3.41.08a27.21,27.21,0,0,0-11.12,2.32,20.25,20.25,0,0,0-7.23,5.82,21.92,21.92,0,0,0-4,8.55,42.71,42.71,0,0,0-1.25,10.54v37.37H696.55Z"/><path d="M806.82,190a22.91,22.91,0,0,1-10.46,8.22,38.81,38.81,0,0,1-14.54,2.65,41.68,41.68,0,0,1-11.54-1.49,25.85,25.85,0,0,1-9.13-4.65,22.71,22.71,0,0,1-6.23-7.72,23.82,23.82,0,0,1-2.24-10.55,22.27,22.27,0,0,1,2.57-11.12,21,21,0,0,1,7.06-7.48,34.53,34.53,0,0,1,10.55-4.31,53,53,0,0,1,12.7-1.42H806c0-5.81-1.33-10.38-3.91-13.61s-7.22-4.9-13.78-5a22.52,22.52,0,0,0-9.88,2,9.94,9.94,0,0,0-5.48,6.47H755.25a23,23,0,0,1,4.16-10.71,28.43,28.43,0,0,1,7.88-7.22,32.26,32.26,0,0,1,10.3-4.07,53.27,53.27,0,0,1,11.46-1.24,46,46,0,0,1,13.78,2,27.33,27.33,0,0,1,11,6.64,28.35,28.35,0,0,1,7.15,13,69.22,69.22,0,0,1,1.82,16.52v42.93H807.9Zm-.92-25.58H789.3a63,63,0,0,0-8.8.67,15.16,15.16,0,0,0-7.48,3.15c-2.07,1.66-3.07,4.07-3.07,7.23a10.13,10.13,0,0,0,4.15,8.71,16.87,16.87,0,0,0,10.22,3,29.06,29.06,0,0,0,8.71-1.24,17.29,17.29,0,0,0,6.9-4,18.68,18.68,0,0,0,4.48-7.14A32.09,32.09,0,0,0,805.9,164.4Z"/><path d="M870.09,133.1a31.6,31.6,0,0,0-4.74.33,16.94,16.94,0,0,0-4.65,1.25,9.4,9.4,0,0,0-3.65,2.82,7.05,7.05,0,0,0-1.41,4.65,6.42,6.42,0,0,0,2.16,5.15,13.52,13.52,0,0,0,5.23,3,54.34,54.34,0,0,0,6.48,1.66c2.24.41,4.23.83,5.81,1.16A110.41,110.41,0,0,1,887,155.93a33.94,33.94,0,0,1,8.88,4.07,17.39,17.39,0,0,1,5.65,6.4,23,23,0,0,1,2.07,10.29,21.31,21.31,0,0,1-2.82,11.46,21.55,21.55,0,0,1-7.22,7.47,31.19,31.19,0,0,1-10.13,4,55,55,0,0,1-11.71,1.24,57.32,57.32,0,0,1-12-1.24A35.88,35.88,0,0,1,849,195.54a25.48,25.48,0,0,1-8.14-7.64,25.13,25.13,0,0,1-4-11.54h17.36a9.55,9.55,0,0,0,2.57,5,14.09,14.09,0,0,0,4.65,3.16,21.3,21.3,0,0,0,5.48,1.66,30.64,30.64,0,0,0,5.32.41,32.36,32.36,0,0,0,4.48-.33,15.85,15.85,0,0,0,4.9-1.33,11,11,0,0,0,3.82-2.82A6.31,6.31,0,0,0,887,177.6a7.16,7.16,0,0,0-1.25-4.31,11.11,11.11,0,0,0-3.24-3,17.83,17.83,0,0,0-4.9-1.91c-1.91-.42-3.9-.92-6.06-1.41-3.32-.58-6.89-1.33-10.63-2.25a58.34,58.34,0,0,1-10.62-3.57,20,20,0,0,1-8.06-6.56c-2.16-2.9-3.15-6.64-3.15-11.2a22.75,22.75,0,0,1,2.9-12,24,24,0,0,1,7.39-7.64,28.11,28.11,0,0,1,10.13-4.07,55.92,55.92,0,0,1,11.05-1.16c8.8,0,15.94,2,21.58,6.06s8.64,9.88,9.14,17.52H885.12a8.93,8.93,0,0,0-4.9-7A27.35,27.35,0,0,0,870.09,133.1Z"/><path d="M953.87,118.74a43.59,43.59,0,0,1,16.77,3,34.36,34.36,0,0,1,19.93,21.34,51.29,51.29,0,0,1,2.57,16.78,53.28,53.28,0,0,1-2.49,16.85,35.82,35.82,0,0,1-7.47,12.95A32.62,32.62,0,0,1,970.89,198a46.56,46.56,0,0,1-17,2.9,43.41,43.41,0,0,1-16.78-3,34.24,34.24,0,0,1-12.2-8.3,35.48,35.48,0,0,1-7.39-12.95,57.75,57.75,0,0,1,0-33.55A34.53,34.53,0,0,1,925,130.11a34.14,34.14,0,0,1,12.29-8.39A43,43,0,0,1,953.87,118.74Zm0,67.17a21.91,21.91,0,0,0,10-2.08,19.31,19.31,0,0,0,6.81-5.48,23.84,23.84,0,0,0,3.9-8.14,39.32,39.32,0,0,0,1.25-10.13,40.06,40.06,0,0,0-1.25-10.21,23.71,23.71,0,0,0-3.9-8.22,18.47,18.47,0,0,0-6.81-5.48,23,23,0,0,0-10-2,21.92,21.92,0,0,0-9.8,2,19.23,19.23,0,0,0-6.81,5.48,22.35,22.35,0,0,0-4,8.22A40.07,40.07,0,0,0,932,160.08a39.33,39.33,0,0,0,1.24,10.13,23,23,0,0,0,3.91,8.14,18.37,18.37,0,0,0,6.81,5.48A22.51,22.51,0,0,0,953.87,185.91Z"/><path d="M1043.71,185.91c6.64,0,11.37-1.83,14.19-5.57s4.24-9.05,4.24-15.85V120.15h17.1v44.92c0,6.64-.91,12.29-2.74,16.85A27.17,27.17,0,0,1,1058,199a51.44,51.44,0,0,1-14.28,1.91c-11.13,0-19.77-2.91-25.91-8.64s-9.3-14.86-9.3-27.23V120.15h17.11v44.34c0,6.89,1.49,12.12,4.48,15.77S1037.56,185.74,1043.71,185.91Z"/><path d="M1097.51,199.77V120.06H1114l.92,11.05a27.42,27.42,0,0,1,11-9.3,35,35,0,0,1,28.31-.17,26.14,26.14,0,0,1,9.55,7.89,31.29,31.29,0,0,1,5.31,11.79,64.27,64.27,0,0,1,1.58,14.86v43.68h-17.27v-41.1a68.75,68.75,0,0,0-.66-9.55,21.83,21.83,0,0,0-2.66-7.81,14.06,14.06,0,0,0-5.48-5.31,19.56,19.56,0,0,0-9.13-1.91,19,19,0,0,0-9.64,2.49,17.44,17.44,0,0,0-6.64,6.56,29.32,29.32,0,0,0-3.32,9.05,48.84,48.84,0,0,0-1,9.55v37.94Z"/><path d="M1264.24,199.77h-16.19l-.92-11a24.65,24.65,0,0,1-11,9.05,42.41,42.41,0,0,1-14.95,3,37,37,0,0,1-15.85-3.4,31.08,31.08,0,0,1-11-8.81,35.74,35.74,0,0,1-6.39-12.78,57.84,57.84,0,0,1-2.08-15.45,55.16,55.16,0,0,1,2.33-16.52,36.29,36.29,0,0,1,7.06-13.12,35.5,35.5,0,0,1,11.45-8.88,36.55,36.55,0,0,1,15.86-3.24,43,43,0,0,1,13.12,2.16,24.28,24.28,0,0,1,11.38,7.89V92.75h17.27v107Zm-39.77-65.51a22,22,0,0,0-9.8,2,18.29,18.29,0,0,0-6.73,5.48,22.24,22.24,0,0,0-3.82,8.22,40.09,40.09,0,0,0-1.24,10.22,39.44,39.44,0,0,0,1.24,10.13,23.06,23.06,0,0,0,3.82,8.13,18.36,18.36,0,0,0,6.81,5.48,23,23,0,0,0,10,2.08,21,21,0,0,0,9.71-2.16,22.44,22.44,0,0,0,7-5.81,26.08,26.08,0,0,0,4.15-8.3A34.92,34.92,0,0,0,1247,160a38.49,38.49,0,0,0-1.25-10,20.17,20.17,0,0,0-11-13.54A25.53,25.53,0,0,0,1224.47,134.26Z"/><path d="M1326.51,92.83h17.35v91.33h55.64v15.61h-73.07V92.83Z"/><path d="M1467.08,190a22.86,22.86,0,0,1-10.46,8.22,38.76,38.76,0,0,1-14.53,2.65,41.68,41.68,0,0,1-11.54-1.49,25.77,25.77,0,0,1-9.13-4.65,22.71,22.71,0,0,1-6.23-7.72,23.68,23.68,0,0,1-2.24-10.55,22.27,22.27,0,0,1,2.57-11.12,20.92,20.92,0,0,1,7.06-7.48,34.57,34.57,0,0,1,10.54-4.31,53.09,53.09,0,0,1,12.71-1.42h20.42c0-5.81-1.33-10.38-3.9-13.61s-7.22-4.9-13.78-5a22.52,22.52,0,0,0-9.88,2,9.94,9.94,0,0,0-5.48,6.47h-17.69a22.87,22.87,0,0,1,4.15-10.71,28.61,28.61,0,0,1,7.89-7.22,32.17,32.17,0,0,1,10.3-4.07,53.21,53.21,0,0,1,11.46-1.24,46.09,46.09,0,0,1,13.78,2,27.4,27.4,0,0,1,11,6.64,28.24,28.24,0,0,1,7.14,13,68.7,68.7,0,0,1,1.83,16.52v42.93h-14.95Zm-.91-25.58h-16.61a63.09,63.09,0,0,0-8.8.67,15.17,15.17,0,0,0-7.47,3.15c-2.08,1.66-3.07,4.07-3.07,7.23a10.13,10.13,0,0,0,4.15,8.71,16.84,16.84,0,0,0,10.21,3,29.12,29.12,0,0,0,8.72-1.24,17.25,17.25,0,0,0,6.89-4,18.69,18.69,0,0,0,4.49-7.14A34.76,34.76,0,0,0,1466.17,164.4Z"/><path d="M1501,199.77V92.83h17.27v38.44a28.3,28.3,0,0,1,11.55-9.3,36.51,36.51,0,0,1,29.47-.25,31.28,31.28,0,0,1,11,8.31,37.56,37.56,0,0,1,6.9,12.87,56.13,56.13,0,0,1,2.32,16.85,59.06,59.06,0,0,1-2.16,16.11A38.18,38.18,0,0,1,1571,189a30.82,30.82,0,0,1-11,8.8,34.79,34.79,0,0,1-15.53,3.16c-11.38,0-20.09-3.66-26.16-11.05-.08,1.75-.16,3.41-.25,5s-.08,3.24-.08,5H1501Zm39.86-13.86a20.94,20.94,0,0,0,9.71-2.08,19,19,0,0,0,6.73-5.48,23.84,23.84,0,0,0,3.9-8.14,39.32,39.32,0,0,0,1.25-10.13,40.06,40.06,0,0,0-1.25-10.21,23.71,23.71,0,0,0-3.9-8.22,18.47,18.47,0,0,0-6.81-5.48,22.53,22.53,0,0,0-9.88-2,20.93,20.93,0,0,0-9.88,2.24,20.71,20.71,0,0,0-7.06,6,26.29,26.29,0,0,0-4.07,8.39,33.32,33.32,0,0,0-1.33,9.38,34,34,0,0,0,1.33,9.71,23.2,23.2,0,0,0,4.07,8.06,21.55,21.55,0,0,0,17.19,8Z"/><path d="M1624.35,133.1a31.6,31.6,0,0,0-4.74.33,16.85,16.85,0,0,0-4.65,1.25,9.4,9.4,0,0,0-3.65,2.82,7.05,7.05,0,0,0-1.41,4.65,6.42,6.42,0,0,0,2.16,5.15,13.52,13.52,0,0,0,5.23,3,54.18,54.18,0,0,0,6.47,1.66c2.25.41,4.24.83,5.82,1.16a110.19,110.19,0,0,1,11.7,2.82,33.86,33.86,0,0,1,8.89,4.07,17.28,17.28,0,0,1,5.64,6.4,22.84,22.84,0,0,1,2.08,10.29,21.28,21.28,0,0,1-10.05,18.93,31.1,31.1,0,0,1-10.13,4,54.94,54.94,0,0,1-11.7,1.24,57.32,57.32,0,0,1-12-1.24,35.77,35.77,0,0,1-10.79-4.07,25.48,25.48,0,0,1-8.14-7.64,25.13,25.13,0,0,1-4-11.54h17.36a9.55,9.55,0,0,0,2.57,5,14,14,0,0,0,4.65,3.16,21.19,21.19,0,0,0,5.48,1.66,30.53,30.53,0,0,0,5.31.41,32.39,32.39,0,0,0,4.49-.33,15.85,15.85,0,0,0,4.9-1.33,11,11,0,0,0,3.82-2.82,6.3,6.3,0,0,0,1.57-4.49,7.16,7.16,0,0,0-1.24-4.31,11.11,11.11,0,0,0-3.24-3,17.83,17.83,0,0,0-4.9-1.91c-1.91-.42-3.9-.92-6.06-1.41-3.32-.58-6.89-1.33-10.63-2.25a58.71,58.71,0,0,1-10.63-3.57,20,20,0,0,1-8-6.56c-2.16-2.9-3.16-6.64-3.16-11.2a22.75,22.75,0,0,1,2.91-12,24,24,0,0,1,7.39-7.64,28,28,0,0,1,10.13-4.07,55.9,55.9,0,0,1,11-1.16c8.81,0,16,2,21.59,6.06s8.64,9.88,9.14,17.52h-16.2a8.89,8.89,0,0,0-4.89-7A27.39,27.39,0,0,0,1624.35,133.1Z"/></g></g></svg>