<svg id="Слой_1" data-name="Слой 1" xmlns="http://www.w3.org/2000/svg" viewBox="0 0 1996.54 351.86"><defs><style>.cls-1{fill:#fff;}</style></defs><polygon class="cls-1" points="516.45 0 329.57 250.94 220.78 258.23 156.99 344 39.57 351.86 103.43 266.09 0 272.98 124.38 105.88 232.84 99.05 111.17 262.67 217.05 256.04 401.42 8.05 516.45 0"/><path class="cls-1" d="M1103.81,475.92v71.23a88.89,88.89,0,0,1-3,23.77,50.63,50.63,0,0,1-9.39,18.67,42.61,42.61,0,0,1-16.48,12.21q-10.11,4.37-24.5,4.37t-24.5-4.37a43.85,43.85,0,0,1-16.58-12.11,49.15,49.15,0,0,1-9.48-18.59,89.62,89.62,0,0,1-3-24V475.92H1018v72a67.32,67.32,0,0,0,1.64,15.12,34.55,34.55,0,0,0,5.47,12.48,27.56,27.56,0,0,0,10,8.56q6.19,3.18,15.49,3.19,9.11,0,15.3-3.19a26.44,26.44,0,0,0,9.93-8.66,35.3,35.3,0,0,0,5.28-12.56,70.2,70.2,0,0,0,1.55-14.94v-72Z" transform="translate(-401.73 -364.07)"/><path class="cls-1" d="M1129,604.71V475.92h20.77V604.71Z" transform="translate(-401.73 -364.07)"/><path class="cls-1" d="M1200.9,508.71h24.23v18H1200.9v43.9q0,8.19,2.92,12.2t11.11,4h9.47v17.85h-11.29q-17.67,0-25.23-7.28t-7.56-23.87V526.75H1165.2v-18h15.12V481.57h20.58Z" transform="translate(-401.73 -364.07)"/><path class="cls-1" d="M1240.62,604.71v-96h19.49l1.09,13.66q11.11-15.3,30.24-15.3c1.21,0,2.4,0,3.55.09s2.22.16,3.19.28v19.31c-1.46,0-2.88,0-4.28.09s-2.76.09-4.1.09a31.91,31.91,0,0,0-13.39,2.82,24.34,24.34,0,0,0-8.74,7,27.19,27.19,0,0,0-4.83,10.29,53,53,0,0,0-1.46,12.66v45Z" transform="translate(-401.73 -364.07)"/><path class="cls-1" d="M1373.42,592.87a27.79,27.79,0,0,1-12.57,9.93,46.17,46.17,0,0,1-17.49,3.19,50.17,50.17,0,0,1-13.94-1.82,32.07,32.07,0,0,1-11-5.56,26.64,26.64,0,0,1-7.47-9.29,28.32,28.32,0,0,1-2.73-12.66,27.08,27.08,0,0,1,3.1-13.39,25.17,25.17,0,0,1,8.47-9,40.73,40.73,0,0,1,12.66-5.19,66.18,66.18,0,0,1,15.3-1.73h24.59q0-10.56-4.73-16.39t-16.58-6a27.8,27.8,0,0,0-11.93,2.37,12.1,12.1,0,0,0-6.65,7.84h-21.31a27.83,27.83,0,0,1,5-12.94,34.16,34.16,0,0,1,9.47-8.74,38.19,38.19,0,0,1,12.39-4.92,65.75,65.75,0,0,1,13.75-1.46,55.79,55.79,0,0,1,16.58,2.37,31.76,31.76,0,0,1,13.29,8,33.16,33.16,0,0,1,8.57,15.66,85.47,85.47,0,0,1,2.18,19.86v51.73h-18Zm-1.1-30.78h-20a68.33,68.33,0,0,0-10.57.82,18.63,18.63,0,0,0-9,3.82q-3.73,3-3.73,8.65,0,6.93,5,10.48a20.7,20.7,0,0,0,12.29,3.55,35.83,35.83,0,0,0,10.48-1.46,20,20,0,0,0,8.29-4.82,22.68,22.68,0,0,0,5.37-8.57A36,36,0,0,0,1372.32,562.09Z" transform="translate(-401.73 -364.07)"/><path class="cls-1" d="M1449.56,524.38a48.44,48.44,0,0,0-5.74.36,19.62,19.62,0,0,0-5.64,1.55,11.44,11.44,0,0,0-4.38,3.37,8.85,8.85,0,0,0-1.73,5.65,8,8,0,0,0,2.55,6.19,16.22,16.22,0,0,0,6.29,3.55,72.21,72.21,0,0,0,7.83,2c2.73.54,5.07,1,7,1.36a134.34,134.34,0,0,1,14.11,3.37,38.71,38.71,0,0,1,10.66,4.92,21.13,21.13,0,0,1,6.83,7.74q2.46,4.74,2.46,12.39a25.52,25.52,0,0,1-12.11,22.86,37.42,37.42,0,0,1-12.21,4.83,67.57,67.57,0,0,1-14.12,1.46,71.55,71.55,0,0,1-14.39-1.46,42.41,42.41,0,0,1-13-4.92,29.36,29.36,0,0,1-14.67-23.13h21a11.47,11.47,0,0,0,3.1,6,19.08,19.08,0,0,0,5.55,3.83,25.9,25.9,0,0,0,6.65,2,41.79,41.79,0,0,0,6.38.55,47,47,0,0,0,5.37-.37,18.88,18.88,0,0,0,5.92-1.64,14.45,14.45,0,0,0,4.65-3.37,7.67,7.67,0,0,0,1.91-5.37,8.78,8.78,0,0,0-1.46-5.19,12.37,12.37,0,0,0-3.91-3.56,21.07,21.07,0,0,0-5.92-2.27l-7.29-1.73q-6-1.1-12.84-2.74a72.55,72.55,0,0,1-12.75-4.28,23.81,23.81,0,0,1-9.75-7.92Q1412,545.15,1412,537q0-8.75,3.46-14.39a28.63,28.63,0,0,1,8.92-9.2,34.86,34.86,0,0,1,12.21-4.92,66.82,66.82,0,0,1,13.3-1.37q15.84,0,26,7.29t11,21.13h-19.5a10.71,10.71,0,0,0-5.92-8.38A27.61,27.61,0,0,0,1449.56,524.38Z" transform="translate(-401.73 -364.07)"/><path class="cls-1" d="M1550.48,507.07a52.22,52.22,0,0,1,20.22,3.65,42.74,42.74,0,0,1,14.85,10.11,42.26,42.26,0,0,1,9.2,15.57,62.72,62.72,0,0,1,3.09,20.22,64.13,64.13,0,0,1-3,20.31,42.71,42.71,0,0,1-9,15.58,39.28,39.28,0,0,1-14.85,10,56.1,56.1,0,0,1-20.49,3.46,53.4,53.4,0,0,1-20.22-3.55,40,40,0,0,1-14.67-10,42.37,42.37,0,0,1-8.92-15.58,69.42,69.42,0,0,1,0-40.44,40.66,40.66,0,0,1,23.77-25.68A51.72,51.72,0,0,1,1550.48,507.07Zm0,80.88a27.38,27.38,0,0,0,12.11-2.45,22.75,22.75,0,0,0,8.2-6.65,28.77,28.77,0,0,0,4.74-9.84,46.08,46.08,0,0,0,1.55-12.21,47.07,47.07,0,0,0-1.55-12.29,28.61,28.61,0,0,0-4.74-9.93,21.93,21.93,0,0,0-8.2-6.56,28.12,28.12,0,0,0-12.11-2.37,27.06,27.06,0,0,0-11.84,2.37,22.91,22.91,0,0,0-8.2,6.56,27.39,27.39,0,0,0-4.83,9.93,47.07,47.07,0,0,0-1.54,12.29,46.08,46.08,0,0,0,1.54,12.21,28.41,28.41,0,0,0,4.74,9.84,22.67,22.67,0,0,0,8.2,6.65A26.93,26.93,0,0,0,1550.48,588Z" transform="translate(-401.73 -364.07)"/><path class="cls-1" d="M1658.69,588q12,0,17.12-6.74t5.1-19.12V508.71h20.59v54.11q0,12-3.28,20.31a32.78,32.78,0,0,1-22.32,20.58,60.81,60.81,0,0,1-17.21,2.28q-20,0-31.25-10.38t-11.2-32.79V508.71h20.59v53.38q0,12.39,5.37,19T1658.69,588Z" transform="translate(-401.73 -364.07)"/><path class="cls-1" d="M1723.54,604.71v-96h19.85l1.1,13.3a33.45,33.45,0,0,1,13.2-11.2,39.06,39.06,0,0,1,16.85-3.74q10.2,0,17.22,3.46a31.4,31.4,0,0,1,11.48,9.48,37.92,37.92,0,0,1,6.37,14.21,78.18,78.18,0,0,1,1.91,17.85v52.64h-20.76V555.16a75.82,75.82,0,0,0-.82-11.47,26.82,26.82,0,0,0-3.19-9.38,16.42,16.42,0,0,0-6.65-6.38,23.39,23.39,0,0,0-11-2.28,22.71,22.71,0,0,0-11.57,3,21.3,21.3,0,0,0-8,7.92,35.51,35.51,0,0,0-4,10.93A59.48,59.48,0,0,0,1744.3,559v45.72Z" transform="translate(-401.73 -364.07)"/><path class="cls-1" d="M1924.28,604.71h-19.49l-1.09-13.29a29.7,29.7,0,0,1-13.3,10.93,52.71,52.71,0,0,1-18,3.64q-11.11-.18-19.13-4.1a37.89,37.89,0,0,1-13.3-10.57,43.27,43.27,0,0,1-7.74-15.39,68.31,68.31,0,0,1-2.46-18.58,66.94,66.94,0,0,1,2.82-19.86,45.19,45.19,0,0,1,8.47-15.84A40.64,40.64,0,0,1,1854.88,511a43.91,43.91,0,0,1,19.13-3.92,52,52,0,0,1,15.84,2.55,28.57,28.57,0,0,1,13.67,9.48V475.92h20.76Zm-47.91-78.87a27.23,27.23,0,0,0-11.84,2.36,22,22,0,0,0-8.1,6.56,27.2,27.2,0,0,0-4.65,9.93,49.9,49.9,0,0,0-1.46,12.3,48.74,48.74,0,0,0,1.46,12.2,27.16,27.16,0,0,0,4.65,9.84,22.63,22.63,0,0,0,8.19,6.65,27.28,27.28,0,0,0,12.12,2.46,24.87,24.87,0,0,0,11.75-2.64,25.36,25.36,0,0,0,8.38-7,30,30,0,0,0,5-10,41.69,41.69,0,0,0,1.64-11.66,45.39,45.39,0,0,0-1.55-12,26.74,26.74,0,0,0-4.83-9.74,23.71,23.71,0,0,0-8.38-6.56A30.08,30.08,0,0,0,1876.37,525.84Z" transform="translate(-401.73 -364.07)"/><path class="cls-1" d="M1999.33,475.92h21V586h67v18.76h-88Z" transform="translate(-401.73 -364.07)"/><path class="cls-1" d="M2168.56,592.87A27.79,27.79,0,0,1,2156,602.8,46.1,46.1,0,0,1,2138.5,606a50.09,50.09,0,0,1-13.93-1.82,32,32,0,0,1-11-5.56,26.53,26.53,0,0,1-7.47-9.29,28.32,28.32,0,0,1-2.73-12.66,27.18,27.18,0,0,1,3.09-13.39,25.25,25.25,0,0,1,8.47-9,40.84,40.84,0,0,1,12.66-5.19,66.27,66.27,0,0,1,15.31-1.73h24.59q0-10.56-4.74-16.39t-16.58-6a27.83,27.83,0,0,0-11.93,2.37,12.13,12.13,0,0,0-6.65,7.84h-21.31a28.05,28.05,0,0,1,5-12.94,34.3,34.3,0,0,1,9.47-8.74,38.37,38.37,0,0,1,12.39-4.92,65.82,65.82,0,0,1,13.75-1.46,55.79,55.79,0,0,1,16.58,2.37,31.86,31.86,0,0,1,13.3,8,33.14,33.14,0,0,1,8.56,15.66,84.92,84.92,0,0,1,2.19,19.86v51.73h-18Zm-1.09-30.78h-20a68.52,68.52,0,0,0-10.57.82,18.55,18.55,0,0,0-9,3.82q-3.73,3-3.74,8.65,0,6.93,5,10.48a20.71,20.71,0,0,0,12.3,3.55,35.81,35.81,0,0,0,10.47-1.46,19.89,19.89,0,0,0,8.29-4.82,22.7,22.7,0,0,0,5.38-8.57A36.25,36.25,0,0,0,2167.47,562.09Z" transform="translate(-401.73 -364.07)"/><path class="cls-1" d="M2209.55,604.71V475.92h20.77v46.27a34.33,34.33,0,0,1,13.93-11.2,42.28,42.28,0,0,1,17.58-3.92,42.89,42.89,0,0,1,17.85,3.55,37.44,37.44,0,0,1,13.3,10,44.37,44.37,0,0,1,8.29,15.49,67.92,67.92,0,0,1,2.82,20.31,71,71,0,0,1-2.55,19.4,45.17,45.17,0,0,1-7.83,15.76,37,37,0,0,1-13.21,10.56,42.53,42.53,0,0,1-18.67,3.83q-20.6,0-31.51-13.3-.2,3.1-.28,6t-.09,6ZM2257.46,588a25.94,25.94,0,0,0,11.66-2.45,22.83,22.83,0,0,0,8.1-6.65A28.41,28.41,0,0,0,2282,569a46.08,46.08,0,0,0,1.55-12.21,47.07,47.07,0,0,0-1.55-12.29,28.25,28.25,0,0,0-4.74-9.93A21.89,21.89,0,0,0,2269,528a27.73,27.73,0,0,0-11.94-2.37,25.14,25.14,0,0,0-11.93,2.74,24.54,24.54,0,0,0-8.47,7.19,32.13,32.13,0,0,0-4.92,10.11,40.49,40.49,0,0,0-1.64,11.3,41.44,41.44,0,0,0,1.64,11.75,28.94,28.94,0,0,0,4.92,9.74,25.09,25.09,0,0,0,8.38,6.83A26.69,26.69,0,0,0,2257.46,588Z" transform="translate(-401.73 -364.07)"/><path class="cls-1" d="M2358,524.38a48.44,48.44,0,0,0-5.74.36,19.62,19.62,0,0,0-5.64,1.55,11.44,11.44,0,0,0-4.38,3.37,8.85,8.85,0,0,0-1.73,5.65,8,8,0,0,0,2.55,6.19,16.22,16.22,0,0,0,6.29,3.55,72.21,72.21,0,0,0,7.83,2c2.73.54,5.07,1,7,1.36a134.34,134.34,0,0,1,14.11,3.37,38.71,38.71,0,0,1,10.66,4.92,21,21,0,0,1,6.83,7.74q2.46,4.74,2.46,12.39a25.52,25.52,0,0,1-12.11,22.86,37.42,37.42,0,0,1-12.21,4.83,67.57,67.57,0,0,1-14.12,1.46,71.55,71.55,0,0,1-14.39-1.46,42.41,42.41,0,0,1-13-4.92,29.36,29.36,0,0,1-14.67-23.13h20.95a11.47,11.47,0,0,0,3.1,6,19,19,0,0,0,5.56,3.83,25.71,25.71,0,0,0,6.64,2,41.79,41.79,0,0,0,6.38.55,47,47,0,0,0,5.37-.37,18.88,18.88,0,0,0,5.92-1.64,14.45,14.45,0,0,0,4.65-3.37,7.67,7.67,0,0,0,1.91-5.37,8.78,8.78,0,0,0-1.46-5.19,12.37,12.37,0,0,0-3.91-3.56,21.07,21.07,0,0,0-5.92-2.27l-7.29-1.73q-6-1.1-12.84-2.74a72.55,72.55,0,0,1-12.75-4.28,23.81,23.81,0,0,1-9.75-7.92q-3.82-5.28-3.82-13.48,0-8.75,3.46-14.39a28.63,28.63,0,0,1,8.92-9.2,34.86,34.86,0,0,1,12.21-4.92,66.82,66.82,0,0,1,13.3-1.37q15.84,0,25.95,7.29t11,21.13h-19.5a10.71,10.71,0,0,0-5.92-8.38A27.61,27.61,0,0,0,2358,524.38Z" transform="translate(-401.73 -364.07)"/></svg>