<?xml version="1.0" encoding="utf-8"?>
<!-- Generator: Adobe Illustrator 26.0.1, SVG Export Plug-In . SVG Version: 6.00 Build 0)  -->
<svg version="1.1" id="Слой_1" xmlns="http://www.w3.org/2000/svg" xmlns:xlink="http://www.w3.org/1999/xlink" x="0px" y="0px"
	 viewBox="0 0 2800 1080" style="enable-background:new 0 0 2800 1080;" xml:space="preserve">
<g>
	<polygon points="918.2,364.1 731.3,615 622.5,622.3 558.7,708.1 441.3,715.9 505.2,630.2 401.7,637.1 526.1,469.9 634.6,463.1 
		512.9,626.7 618.8,620.1 803.2,372.1 	"/>
	<g>
		<path d="M1103.8,475.9v71.2c0,8.6-1,16.5-3,23.8c-2,7.2-5.1,13.5-9.4,18.7c-4.3,5.2-9.7,9.3-16.5,12.2c-6.7,2.9-14.9,4.4-24.5,4.4
			c-9.6,0-17.8-1.5-24.5-4.4c-6.7-2.9-12.3-7-16.6-12.1c-4.3-5.2-7.5-11.4-9.5-18.6c-2-7.2-3-15.2-3-24v-71.2h21.1v72
			c0,5.3,0.5,10.4,1.6,15.1s2.9,8.9,5.5,12.5c2.6,3.6,5.9,6.4,10,8.6c4.1,2.1,9.3,3.2,15.5,3.2c6.1,0,11.2-1.1,15.3-3.2
			c4.1-2.1,7.4-5,9.9-8.7c2.5-3.6,4.2-7.8,5.3-12.6c1-4.7,1.5-9.7,1.5-14.9v-72H1103.8z"/>
		<path d="M1128.9,604.7V475.9h20.8v128.8H1128.9z"/>
		<path d="M1200.9,508.7h24.2v18h-24.2v43.9c0,5.5,1,9.5,2.9,12.2c1.9,2.7,5.6,4,11.1,4h9.5v17.9h-11.3c-11.8,0-20.2-2.4-25.2-7.3
			c-5-4.9-7.6-12.8-7.6-23.9v-46.8h-15.1v-18h15.1v-27.1h20.6V508.7z"/>
		<path d="M1240.6,604.7v-96h19.5l1.1,13.7c7.4-10.2,17.5-15.3,30.2-15.3c1.2,0,2.4,0,3.6,0.1c1.2,0.1,2.2,0.2,3.2,0.3v19.3
			c-1.5,0-2.9,0-4.3,0.1c-1.4,0.1-2.8,0.1-4.1,0.1c-5.3,0.1-9.8,1.1-13.4,2.8c-3.6,1.8-6.5,4.1-8.7,7c-2.2,2.9-3.9,6.3-4.8,10.3
			c-1,3.9-1.5,8.2-1.5,12.7v45H1240.6z"/>
		<path d="M1373.4,592.9c-3.2,4.5-7.3,7.8-12.6,9.9c-5.2,2.1-11.1,3.2-17.5,3.2c-5.1,0-9.7-0.6-13.9-1.8c-4.2-1.2-7.9-3.1-11-5.6
			c-3.2-2.5-5.6-5.6-7.5-9.3c-1.8-3.7-2.7-7.9-2.7-12.7c0-5.2,1-9.7,3.1-13.4c2.1-3.7,4.9-6.7,8.5-9c3.6-2.3,7.8-4,12.7-5.2
			c4.9-1.2,10-1.7,15.3-1.7h24.6c0-7-1.6-12.5-4.7-16.4c-3.2-3.9-8.7-5.9-16.6-6c-4.6,0-8.6,0.8-11.9,2.4c-3.3,1.6-5.6,4.2-6.6,7.8
			h-21.3c0.7-5.1,2.4-9.4,5-12.9c2.6-3.5,5.8-6.4,9.5-8.7c3.7-2.3,7.8-3.9,12.4-4.9c4.6-1,9.1-1.5,13.8-1.5c5.9,0,11.5,0.8,16.6,2.4
			c5.1,1.6,9.5,4.3,13.3,8c4.2,4.4,7.1,9.6,8.6,15.7c1.5,6.1,2.2,12.7,2.2,19.9v51.7h-18L1373.4,592.9z M1372.3,562.1h-20
			c-3.5,0-7,0.3-10.6,0.8c-3.5,0.5-6.5,1.8-9,3.8c-2.5,2-3.7,4.9-3.7,8.7c0,4.6,1.7,8.1,5,10.5c3.3,2.4,7.4,3.6,12.3,3.6
			c3.8,0,7.3-0.5,10.5-1.5c3.2-1,6-2.6,8.3-4.8c2.3-2.2,4.1-5.1,5.4-8.6C1371.7,571.1,1372.3,566.9,1372.3,562.1z"/>
		<path d="M1449.6,524.4c-1.8,0-3.7,0.1-5.7,0.4c-2,0.2-3.9,0.8-5.6,1.5c-1.8,0.8-3.2,1.9-4.4,3.4c-1.2,1.5-1.7,3.3-1.7,5.6
			c0,2.6,0.8,4.6,2.6,6.2c1.7,1.6,3.8,2.8,6.3,3.6c2.5,0.8,5.1,1.5,7.8,2c2.7,0.5,5.1,1,7,1.4c5.2,1,9.9,2.1,14.1,3.4
			c4.2,1.3,7.7,2.9,10.7,4.9c2.9,2,5.2,4.6,6.8,7.7c1.6,3.2,2.5,7.3,2.5,12.4c0,5.5-1.1,10.1-3.4,13.8c-2.2,3.8-5.2,6.8-8.7,9
			c-3.6,2.2-7.7,3.9-12.2,4.8c-4.6,1-9.3,1.5-14.1,1.5c-4.9,0-9.7-0.5-14.4-1.5c-4.7-1-9.1-2.6-13-4.9c-3.9-2.3-7.2-5.4-9.8-9.2
			c-2.6-3.8-4.2-8.5-4.8-13.9h20.9c0.5,2.4,1.5,4.4,3.1,6c1.6,1.6,3.4,2.9,5.6,3.8c2.1,1,4.3,1.6,6.6,2c2.3,0.4,4.4,0.5,6.4,0.5
			c1.5,0,3.2-0.1,5.4-0.4c2.1-0.2,4.1-0.8,5.9-1.6c1.8-0.8,3.4-2,4.6-3.4c1.3-1.4,1.9-3.2,1.9-5.4c0-2.1-0.5-3.8-1.5-5.2
			c-1-1.4-2.3-2.6-3.9-3.6c-1.6-1-3.6-1.7-5.9-2.3c-2.3-0.5-4.7-1.1-7.3-1.7c-4-0.7-8.3-1.6-12.8-2.7c-4.6-1.1-8.8-2.5-12.8-4.3
			c-3.9-1.8-7.2-4.4-9.7-7.9c-2.6-3.5-3.8-8-3.8-13.5c0-5.8,1.2-10.6,3.5-14.4c2.3-3.8,5.3-6.8,8.9-9.2c3.6-2.4,7.7-4,12.2-4.9
			c4.5-0.9,8.9-1.4,13.3-1.4c10.6,0,19.2,2.4,26,7.3c6.7,4.9,10.4,11.9,11,21.1h-19.5c-0.6-3.9-2.6-6.7-5.9-8.4
			C1458.2,525.4,1454.2,524.5,1449.6,524.4z"/>
		<path d="M1550.5,507.1c7.7,0,14.4,1.2,20.2,3.6c5.8,2.4,10.8,5.8,14.8,10.1c4.1,4.3,7.1,9.5,9.2,15.6c2.1,6.1,3.1,12.8,3.1,20.2
			c0,7.5-1,14.3-3,20.3c-2,6-5,11.2-9,15.6c-4,4.4-9,7.7-14.8,10c-5.9,2.3-12.7,3.5-20.5,3.5c-7.7,0-14.4-1.2-20.2-3.6
			c-5.8-2.4-10.7-5.7-14.7-10c-3.9-4.3-6.9-9.5-8.9-15.6c-2-6.1-3-12.8-3-20.2c0-7.4,1-14.1,3-20.2c2-6.1,5-11.3,9-15.6
			c4-4.3,8.9-7.7,14.8-10.1C1536.3,508.3,1542.9,507.1,1550.5,507.1z M1550.5,588c4.7,0,8.8-0.8,12.1-2.5c3.3-1.6,6.1-3.9,8.2-6.6
			c2.1-2.8,3.7-6.1,4.7-9.8c1-3.8,1.5-7.8,1.5-12.2c0-4.4-0.5-8.5-1.5-12.3c-1-3.8-2.6-7.1-4.7-9.9c-2.1-2.8-4.9-5-8.2-6.6
			c-3.3-1.6-7.4-2.4-12.1-2.4c-4.6,0-8.6,0.8-11.8,2.4c-3.3,1.6-6,3.8-8.2,6.6c-2.2,2.8-3.8,6.1-4.8,9.9c-1,3.8-1.5,7.9-1.5,12.3
			c0,4.4,0.5,8.4,1.5,12.2c1,3.8,2.6,7,4.7,9.8c2.1,2.8,4.9,5,8.2,6.6C1541.9,587.1,1545.9,588,1550.5,588z"/>
		<path d="M1658.7,588c8,0,13.7-2.2,17.1-6.7c3.4-4.5,5.1-10.9,5.1-19.1v-53.4h20.6v54.1c0,8-1.1,14.8-3.3,20.3
			c-2.2,5.5-5.2,10-8.9,13.3c-3.8,3.3-8.2,5.8-13.4,7.3c-5.2,1.5-10.9,2.3-17.2,2.3c-13.4,0-23.8-3.5-31.2-10.4
			c-7.5-6.9-11.2-17.9-11.2-32.8v-54.1h20.6v53.4c0,8.3,1.8,14.6,5.4,19C1645.8,585.6,1651.3,587.8,1658.7,588z"/>
		<path d="M1723.5,604.7v-96h19.9l1.1,13.3c3.5-5,7.9-8.7,13.2-11.2c5.3-2.5,10.9-3.7,16.9-3.7c6.8,0,12.5,1.2,17.2,3.5
			c4.7,2.3,8.5,5.5,11.5,9.5c3,4,5.1,8.7,6.4,14.2c1.3,5.5,1.9,11.4,1.9,17.9v52.6h-20.8v-49.5c0-4.1-0.3-8-0.8-11.5
			c-0.5-3.5-1.6-6.6-3.2-9.4c-1.6-2.7-3.8-4.9-6.6-6.4c-2.9-1.5-6.5-2.3-11-2.3c-4.3,0-8.1,1-11.6,3c-3.5,2-6.1,4.6-8,7.9
			c-1.9,3.3-3.2,6.9-4,10.9c-0.8,4-1.2,7.8-1.2,11.5v45.7H1723.5z"/>
		<path d="M1924.3,604.7h-19.5l-1.1-13.3c-3.5,5.1-8,8.7-13.3,10.9c-5.3,2.2-11.4,3.4-18,3.6c-7.4-0.1-13.8-1.5-19.1-4.1
			c-5.3-2.6-9.8-6.1-13.3-10.6c-3.5-4.4-6.1-9.6-7.7-15.4c-1.6-5.8-2.5-12-2.5-18.6c0-7.2,0.9-13.8,2.8-19.9
			c1.9-6.1,4.7-11.4,8.5-15.8c3.8-4.5,8.4-8,13.8-10.7c5.5-2.6,11.8-3.9,19.1-3.9c5.2,0,10.5,0.9,15.8,2.6c5.3,1.7,9.9,4.9,13.7,9.5
			v-43.2h20.8V604.7z M1876.4,525.8c-4.6,0-8.6,0.8-11.8,2.4c-3.3,1.6-6,3.8-8.1,6.6c-2.1,2.8-3.7,6.1-4.6,9.9
			c-1,3.8-1.5,7.9-1.5,12.3s0.5,8.4,1.5,12.2c1,3.8,2.5,7,4.6,9.8c2.1,2.8,4.9,5,8.2,6.6c3.3,1.6,7.4,2.5,12.1,2.5
			c4.5,0,8.4-0.9,11.7-2.6c3.3-1.8,6.1-4.1,8.4-7c2.2-2.9,3.9-6.3,5-10c1.1-3.8,1.6-7.7,1.6-11.7c0-4.2-0.5-8.3-1.5-12
			c-1-3.8-2.6-7-4.8-9.7c-2.2-2.7-5-4.9-8.4-6.6C1885.4,526.8,1881.2,526,1876.4,525.8z"/>
		<path d="M1999.3,475.9h20.9v110h67v18.8h-88V475.9z"/>
		<path d="M2168.6,592.9c-3.2,4.5-7.3,7.8-12.6,9.9c-5.2,2.1-11.1,3.2-17.5,3.2c-5.1,0-9.7-0.6-13.9-1.8c-4.2-1.2-7.9-3.1-11-5.6
			c-3.2-2.5-5.6-5.6-7.5-9.3c-1.8-3.7-2.7-7.9-2.7-12.7c0-5.2,1-9.7,3.1-13.4c2.1-3.7,4.9-6.7,8.5-9c3.6-2.3,7.8-4,12.7-5.2
			c4.9-1.2,10-1.7,15.3-1.7h24.6c0-7-1.6-12.5-4.7-16.4c-3.2-3.9-8.7-5.9-16.6-6c-4.6,0-8.6,0.8-11.9,2.4c-3.3,1.6-5.6,4.2-6.6,7.8
			h-21.3c0.7-5.1,2.4-9.4,5-12.9c2.6-3.5,5.8-6.4,9.5-8.7c3.7-2.3,7.8-3.9,12.4-4.9c4.6-1,9.1-1.5,13.8-1.5c5.9,0,11.5,0.8,16.6,2.4
			c5.1,1.6,9.5,4.3,13.3,8c4.2,4.4,7.1,9.6,8.6,15.7c1.5,6.1,2.2,12.7,2.2,19.9v51.7h-18L2168.6,592.9z M2167.5,562.1h-20
			c-3.5,0-7,0.3-10.6,0.8c-3.5,0.5-6.5,1.8-9,3.8c-2.5,2-3.7,4.9-3.7,8.7c0,4.6,1.7,8.1,5,10.5c3.3,2.4,7.4,3.6,12.3,3.6
			c3.8,0,7.3-0.5,10.5-1.5c3.2-1,6-2.6,8.3-4.8c2.3-2.2,4.1-5.1,5.4-8.6C2166.8,571.1,2167.5,566.9,2167.5,562.1z"/>
		<path d="M2209.5,604.7V475.9h20.8v46.3c3.5-4.9,8.2-8.6,13.9-11.2c5.8-2.6,11.6-3.9,17.6-3.9c6.7,0,12.6,1.2,17.9,3.6
			c5.2,2.4,9.7,5.7,13.3,10c3.6,4.3,6.4,9.5,8.3,15.5c1.9,6,2.8,12.8,2.8,20.3c0,6.9-0.9,13.4-2.6,19.4c-1.7,6-4.3,11.3-7.8,15.8
			c-3.5,4.5-7.9,8-13.2,10.6c-5.3,2.6-11.5,3.8-18.7,3.8c-13.7,0-24.2-4.4-31.5-13.3c-0.1,2.1-0.2,4.1-0.3,6c-0.1,1.9-0.1,3.9-0.1,6
			H2209.5z M2257.5,588c4.5,0,8.4-0.8,11.7-2.5c3.3-1.6,6-3.9,8.1-6.6c2.1-2.8,3.7-6.1,4.7-9.8c1-3.8,1.5-7.8,1.5-12.2
			c0-4.4-0.5-8.5-1.5-12.3c-1-3.8-2.6-7.1-4.7-9.9c-2.1-2.8-4.9-5-8.2-6.6c-3.3-1.6-7.3-2.4-11.9-2.4c-4.5,0-8.5,0.9-11.9,2.7
			s-6.3,4.2-8.5,7.2c-2.2,3-3.8,6.3-4.9,10.1c-1.1,3.8-1.6,7.5-1.6,11.3c0,4.1,0.5,8,1.6,11.7c1.1,3.7,2.7,7,4.9,9.7
			c2.2,2.8,5,5.1,8.4,6.8C2248.5,587.1,2252.6,588,2257.5,588z"/>
		<path d="M2358,524.4c-1.8,0-3.7,0.1-5.7,0.4c-2,0.2-3.9,0.8-5.6,1.5c-1.8,0.8-3.2,1.9-4.4,3.4c-1.2,1.5-1.7,3.3-1.7,5.6
			c0,2.6,0.8,4.6,2.6,6.2c1.7,1.6,3.8,2.8,6.3,3.6c2.5,0.8,5.1,1.5,7.8,2c2.7,0.5,5.1,1,7,1.4c5.2,1,9.9,2.1,14.1,3.4
			c4.2,1.3,7.7,2.9,10.7,4.9c2.9,2,5.2,4.6,6.8,7.7c1.6,3.2,2.5,7.3,2.5,12.4c0,5.5-1.1,10.1-3.4,13.8c-2.2,3.8-5.2,6.8-8.7,9
			c-3.6,2.2-7.7,3.9-12.2,4.8c-4.6,1-9.3,1.5-14.1,1.5c-4.9,0-9.7-0.5-14.4-1.5c-4.7-1-9.1-2.6-13-4.9c-3.9-2.3-7.2-5.4-9.8-9.2
			c-2.6-3.8-4.2-8.5-4.8-13.9h20.9c0.5,2.4,1.5,4.4,3.1,6c1.6,1.6,3.4,2.9,5.6,3.8c2.1,1,4.3,1.6,6.6,2c2.3,0.4,4.4,0.5,6.4,0.5
			c1.5,0,3.2-0.1,5.4-0.4c2.1-0.2,4.1-0.8,5.9-1.6c1.8-0.8,3.4-2,4.6-3.4c1.3-1.4,1.9-3.2,1.9-5.4c0-2.1-0.5-3.8-1.5-5.2
			c-1-1.4-2.3-2.6-3.9-3.6c-1.6-1-3.6-1.7-5.9-2.3c-2.3-0.5-4.7-1.1-7.3-1.7c-4-0.7-8.3-1.6-12.8-2.7c-4.6-1.1-8.8-2.5-12.8-4.3
			c-3.9-1.8-7.2-4.4-9.7-7.9c-2.6-3.5-3.8-8-3.8-13.5c0-5.8,1.2-10.6,3.5-14.4c2.3-3.8,5.3-6.8,8.9-9.2c3.6-2.4,7.7-4,12.2-4.9
			c4.5-0.9,8.9-1.4,13.3-1.4c10.6,0,19.2,2.4,26,7.3c6.7,4.9,10.4,11.9,11,21.1h-19.5c-0.6-3.9-2.6-6.7-5.9-8.4
			C2366.6,525.4,2362.6,524.5,2358,524.4z"/>
	</g>
</g>
</svg>
